<?xml version="1.0" standalone="no"?>
<!DOCTYPE svg PUBLIC "-//W3C//DTD SVG 20010904//EN"
 "http://www.w3.org/TR/2001/REC-SVG-20010904/DTD/svg10.dtd">
<svg version="1.0" xmlns="http://www.w3.org/2000/svg"
 width="2126.000000pt" height="827.000000pt" viewBox="0 0 2126.000000 827.000000"
 preserveAspectRatio="xMidYMid meet">

<g transform="translate(0.000000,827.000000) scale(0.100000,-0.100000)"
fill="#000000" stroke="none">
<path d="M167 6886 c-59 -22 -103 -62 -132 -121 -24 -47 -27 -64 -23 -122 5
-68 112 -332 875 -2146 53 -127 102 -196 181 -256 94 -72 181 -101 308 -101
141 0 252 46 352 146 76 76 36 -7 613 1276 238 532 436 968 439 968 3 0 203
-467 444 -1037 242 -571 452 -1063 468 -1094 33 -63 111 -148 173 -187 152
-96 377 -97 530 -1 64 40 119 92 155 149 16 25 135 286 266 580 253 571 260
592 234 685 -16 57 -68 117 -125 144 -60 28 -150 28 -209 1 -87 -41 -69 -7
-432 -837 -82 -188 -152 -338 -156 -335 -3 4 -194 455 -423 1002 -229 547
-430 1016 -447 1042 -98 155 -289 258 -478 258 -194 0 -388 -108 -483 -269
-19 -31 -233 -502 -478 -1048 -244 -546 -447 -989 -450 -985 -4 4 -68 156
-142 337 -345 843 -747 1815 -760 1841 -51 98 -190 149 -300 110z"/>
<path d="M5722 6875 c-64 -33 -108 -84 -127 -149 -22 -75 -22 -2338 0 -2412
32 -108 123 -174 238 -174 81 0 142 25 188 78 69 78 64 -14 67 1257 2 633 0
1173 -3 1201 -9 73 -58 151 -119 189 -40 24 -62 30 -120 33 -61 3 -78 0 -124
-23z"/>
<path d="M6771 6887 c-54 -21 -112 -76 -137 -132 l-24 -53 2 -1178 3 -1179 31
-55 c36 -63 107 -123 168 -139 29 -9 356 -11 1163 -9 l1121 3 44 30 c28 20 53
49 71 85 24 47 28 63 24 113 -6 72 -44 138 -99 175 l-42 27 -990 5 -991 5 -5
1075 c-5 974 -7 1078 -21 1105 -23 42 -57 76 -103 104 -46 29 -161 38 -215 18z"/>
<path d="M9791 6888 c-47 -13 -136 -105 -150 -154 -8 -27 -11 -397 -11 -1200
0 -1296 -5 -1212 71 -1298 22 -24 63 -56 91 -70 l52 -26 1125 0 1125 0 44 21
c85 42 135 152 112 248 -14 59 -45 104 -97 140 l-38 26 -990 5 -990 5 -5 1070
-5 1070 -22 41 c-28 53 -91 107 -142 122 -45 14 -122 14 -170 0z"/>
<path d="M12844 6876 c-28 -13 -65 -41 -83 -62 -64 -78 -62 -20 -59 -1320 l3
-1179 22 -41 c25 -48 83 -101 129 -120 19 -8 63 -14 99 -14 106 0 187 52 233
149 16 33 17 125 20 1196 2 810 -1 1175 -8 1212 -35 164 -204 250 -356 179z"/>
<path d="M14039 6881 c-147 -47 -267 -178 -299 -327 -7 -33 -10 -413 -8 -1144
3 -1057 4 -1096 22 -1134 47 -94 131 -141 244 -134 89 5 153 41 197 112 l30
49 3 1055 c1 579 6 1052 11 1050 4 -2 469 -478 1033 -1058 563 -581 1044
-1070 1069 -1088 119 -89 243 -126 399 -120 99 3 112 6 181 40 93 46 168 122
212 215 l32 68 3 1120 c3 1268 9 1170 -80 1249 -53 49 -97 66 -167 66 -95 0
-179 -50 -224 -134 l-22 -41 -5 -1051 -5 -1052 -1034 1065 c-1061 1093 -1083
1114 -1206 1166 -117 49 -282 61 -386 28z"/>
<path d="M18038 6881 c-166 -53 -281 -190 -308 -366 -7 -47 -10 -414 -8 -1130
3 -946 5 -1064 19 -1095 44 -96 128 -150 234 -150 36 0 80 6 99 14 46 19 104
72 129 120 l22 41 5 1049 5 1049 1007 -1039 c554 -571 1033 -1061 1065 -1088
70 -59 196 -120 280 -136 34 -7 105 -11 160 -8 85 3 107 8 166 37 79 38 160
114 199 187 60 112 58 69 58 1244 0 1186 3 1125 -62 1204 -92 112 -298 113
-383 2 -64 -84 -60 -7 -65 -1150 l-5 -1038 -1028 1058 c-1144 1180 -1109 1147
-1294 1195 -97 24 -218 24 -295 0z"/>
<path d="M9343 3170 c-170 -31 -293 -137 -269 -233 9 -39 54 -85 105 -112 107
-54 251 -57 382 -9 95 34 188 41 285 19 53 -12 77 -22 85 -37 15 -28 -5 -73
-39 -87 -15 -6 -144 -40 -286 -77 -294 -75 -322 -76 -421 -23 -161 86 -403 80
-579 -14 -83 -44 -160 -118 -192 -183 -22 -46 -26 -64 -22 -123 3 -55 9 -76
32 -109 62 -91 191 -143 351 -144 129 -1 208 19 340 83 120 59 176 66 255 31
49 -21 110 -82 111 -110 0 -9 1 -64 2 -122 2 -94 5 -111 31 -165 118 -241 485
-338 761 -200 134 66 226 172 260 299 49 181 -49 370 -238 460 -90 43 -154 56
-265 56 -106 0 -189 -19 -287 -65 -95 -44 -186 -61 -255 -46 -96 21 -170 74
-170 122 0 32 40 83 81 105 46 23 514 144 560 144 23 0 85 -14 138 -31 266
-87 579 -20 662 142 82 163 -97 300 -396 302 -134 1 -192 -14 -324 -85 l-93
-50 -74 12 c-98 17 -126 35 -141 93 -16 58 -68 110 -138 136 -63 24 -180 33
-252 21z"/>
<path d="M5690 2425 l0 -665 80 0 80 0 0 62 0 63 30 -37 c66 -80 227 -129 357
-109 231 36 366 219 366 496 0 222 -88 387 -249 466 -56 28 -78 33 -163 37
-138 6 -223 -19 -292 -88 l-49 -49 0 244 0 245 -80 0 -80 0 0 -665z m550 160
c140 -49 222 -229 192 -421 -22 -138 -69 -217 -159 -260 -111 -55 -266 -27
-339 59 -55 65 -77 133 -82 249 -4 89 -1 118 18 179 18 61 30 81 78 129 31 31
73 61 92 67 51 16 151 15 200 -2z"/>
<path d="M12742 2909 c-176 -27 -343 -146 -421 -302 -43 -87 -61 -167 -61
-272 0 -178 48 -296 169 -415 126 -125 266 -177 446 -167 154 9 283 65 384
166 191 191 222 506 72 737 -122 189 -354 289 -589 253z m223 -133 c197 -52
325 -226 325 -439 0 -142 -36 -233 -128 -329 -117 -123 -295 -165 -467 -111
-149 47 -263 175 -296 333 -15 71 -6 213 16 270 49 123 161 232 278 269 74 24
199 27 272 7z"/>
<path d="M19643 2910 c-190 -29 -355 -149 -436 -314 -87 -176 -73 -421 32
-585 78 -121 240 -227 382 -251 158 -27 323 8 441 93 61 44 116 94 107 99 -2
2 -23 21 -46 42 l-42 39 -51 -47 c-130 -122 -332 -146 -507 -61 -212 104 -302
385 -198 613 32 70 131 172 198 205 80 39 137 50 240 45 77 -3 103 -9 159 -35
37 -17 86 -49 110 -71 l43 -40 43 38 c23 21 42 42 42 48 0 16 -106 100 -159
127 -99 50 -247 73 -358 55z"/>
<path d="M11440 2835 l0 -65 300 0 299 0 -339 -457 c-322 -433 -340 -460 -340
-500 l0 -43 435 0 435 0 0 65 0 65 -338 2 -338 3 333 449 c329 444 333 450
333 498 l0 48 -390 0 -390 0 0 -65z"/>
<path d="M13580 2335 l0 -565 65 0 65 0 2 446 3 446 335 -443 335 -444 53 -3
52 -3 0 565 0 566 -65 0 -65 0 -2 -440 -3 -439 -295 392 c-411 546 -360 487
-425 487 l-55 0 0 -565z"/>
<path d="M14867 2342 c-131 -308 -237 -562 -237 -566 0 -4 32 -6 71 -4 l71 3
57 135 56 135 266 3 267 2 57 -136 c32 -74 63 -138 70 -140 7 -3 39 -4 73 -2
l61 3 -237 560 -238 560 -50 3 -51 3 -236 -559z m392 91 c55 -134 101 -247
101 -253 0 -6 -74 -10 -210 -10 -115 0 -210 2 -210 4 0 2 43 107 96 232 53
126 100 240 105 253 5 13 11 22 13 20 2 -2 49 -113 105 -246z"/>
<path d="M15810 2335 l0 -565 65 0 65 0 2 427 3 427 204 -333 c112 -183 207
-329 211 -324 5 4 94 150 200 323 105 173 196 319 201 324 5 6 9 -159 9 -417
l0 -427 65 0 65 0 0 565 0 566 -61 -3 -62 -3 -207 -343 c-114 -189 -211 -343
-216 -343 -5 1 -101 155 -215 344 l-205 342 -62 3 -62 3 0 -566z"/>
<path d="M17125 2888 c-3 -7 -4 -260 -3 -563 l3 -550 323 -3 322 -2 0 65 0 65
-255 0 -255 0 0 200 0 200 235 0 235 0 0 65 0 65 -235 0 -235 0 0 170 0 170
250 0 250 0 0 65 0 65 -315 0 c-243 0 -317 -3 -320 -12z"/>
<path d="M17940 2336 l0 -566 65 0 65 0 0 220 0 221 127 -3 127 -3 124 -217
125 -218 73 0 c41 0 74 2 74 6 0 3 -58 106 -130 229 -71 123 -130 226 -130
228 0 2 24 20 54 40 105 70 151 167 144 305 -3 72 -9 96 -33 140 -36 66 -91
117 -164 150 -54 26 -63 27 -288 30 l-233 4 0 -566z m498 400 c106 -73 122
-236 34 -330 -52 -55 -91 -66 -254 -66 l-148 0 0 216 0 215 163 -3 c162 -3
164 -3 205 -32z"/>
<path d="M18860 2335 l0 -565 65 0 65 0 0 565 0 565 -65 0 -65 0 0 -565z"/>
<path d="M20667 2868 c-8 -18 -114 -268 -236 -555 -121 -288 -221 -527 -221
-533 0 -6 29 -10 69 -10 l68 0 58 140 58 140 266 0 267 0 58 -140 58 -140 69
0 c38 0 69 4 69 9 0 5 -105 258 -234 562 l-234 554 -51 3 c-49 3 -51 2 -64
-30z m171 -441 c56 -134 102 -247 102 -250 0 -4 -94 -7 -210 -7 -115 0 -210 3
-210 7 0 15 203 493 210 493 4 0 52 -110 108 -243z"/>
<path d="M6690 2715 c0 -3 85 -218 190 -479 l189 -474 -35 -88 c-42 -105 -59
-128 -103 -150 -33 -16 -72 -15 -128 2 -22 6 -23 4 -23 -69 l0 -76 46 -7 c113
-17 209 16 262 90 45 63 46 65 277 666 120 311 220 571 222 578 4 9 -16 12
-80 12 l-85 0 -69 -202 c-39 -112 -99 -287 -134 -390 -35 -103 -66 -188 -69
-188 -3 0 -40 98 -82 218 -42 119 -105 295 -139 390 l-61 172 -89 0 c-49 0
-89 -2 -89 -5z"/>
</g>
</svg>
